# xmcd
#
# Track frame offsets:
#	150
#	20169
#	37108
#	47045
#	65504
#	69613
#	102446
#	119966
#	138594
#	152939
#	167913
#	174877
#	194442
#	216410
#
# Disc length: 3476 seconds
#
# Revision: 1
# Processed by: cddbd v1.5.1PL0 Copyright (c) Steve Scherf et al.
# Submitted via: EasyCDDAExtractor 7.1.0.1
#
DISCID=e10d920e
DTITLE=hank pine and lily fawn - the road to new orleans [cd 1]
DYEAR=2005
DGENRE=punk
TTITLE0=theme to "the road to new orleans"
TTITLE1=black pine trailer park
TTITLE2=lily's lonely song
TTITLE3=circus gotti
TTITLE4=hank meets bubba french
TTITLE5=ballad of the dancing bear
TTITLE6=tincans and tiny fee
TTITLE7=firefly
TTITLE8=angel of the west wing
TTITLE9=murray the bad rooster
TTITLE10=whiskey train
TTITLE11=foetus lake
TTITLE12=the hermit in the house of god
TTITLE13=storytelling song
EXTD=
EXTT0=
EXTT1=
EXTT2=
EXTT3=
EXTT4=
EXTT5=
EXTT6=
EXTT7=
EXTT8=
EXTT9=
EXTT10=
EXTT11=
EXTT12=
EXTT13=
PLAYORDER=
